This is the first comprehensive independent critical review of the work of Pink Floyd from 1967-1974 in concert, on record and on film. Using the actual words of the band and critics, Inside Pink Floyd is the definitive critical review of the music of Pink Floyd from Piper at the Gates of Dawn to Dark Side Of The Moon. It features rare unreleased film of concert performances from sound and television archives around the world including soundtrack material from rare television performances of material from Ummagumma, and a rare performance of Atom Heart Mother performed by the band alone never previously available on DVD.

Comprehensive critical analysis of all Pink Floyd's work from 1967-74 is collected for the first time on this release; in-depth discussions with experts concerning the band in concert, on record, and on film provide an enlightening take on this seminal band. Here we take an unprecedented look at the band's music leading up to 1973's THE DARK SIDE OF THE MOON, which stayed on the album charts for a stunning 14 years; every following release was a critically lauded success. Also included is rare concert footage featuring a previously unseen performance of Atom Heart Mother, as well as rare television appearances from around the world.  

General  

Format : MPEG-4 
Format profile : Base Media / Version 2 
Codec ID : mp42 
File size : 1.35 GiB 
Duration : 1h 2mn 
Overall bit rate mode : Variable 
Overall bit rate : 3 067 Kbps 

Video 

ID : 1 
Format : AVC 
Format/Info : Advanced Video Codec 
Format profile : Main@L3.0 
Format settings, CABAC : Yes 
Format settings, ReFrames : 2 frames 
Codec ID : avc1 
Codec ID/Info : Advanced Video Coding 
Duration : 1h 2mn 
Bit rate mode : Variable 
Bit rate : 2 484 Kbps 
Maximum bit rate : 5 693 Kbps 
Width : 720 pixels 
Height : 480 pixels 
Display aspect ratio : 16:9 
Original display aspect ratio : 16:9 
Frame rate mode : Constant 
Frame rate : 29.970 fps 
Standard : NTSC 
Color space : YUV 
Chroma subsampling : 4:2:0 
Bit depth : 8 bits 
Scan type : Progressive 
Bits/(Pixel*Frame) : 0.240 
Stream size : 1.09 GiB (81%) 
Language : English 

Audio #1 

ID : 2 
Format : AAC 
Format/Info : Advanced Audio Codec 
Format profile : LC 
Codec ID : 40 
Duration : 1h 2mn 
Bit rate mode : Variable 
Bit rate : 192 Kbps 
Maximum bit rate : 239 Kbps 
Channel(s) : 2 channels 
Channel positions : Front: L R 
Sampling rate : 48.0 KHz 
Compression mode : Lossy 
Stream size : 86.3 MiB (6%) 
Language : English 

Audio #2 

ID : 3 
Format : AAC 
Format/Info : Advanced Audio Codec 
Format profile : LC 
Codec ID : 40 
Duration : 1h 2mn 
Bit rate mode : Variable 
Bit rate : 192 Kbps 
Maximum bit rate : 240 Kbps 
Channel(s) : 2 channels 
Channel positions : Front: L R 
Sampling rate : 48.0 KHz 
Compression mode : Lossy 
Stream size : 86.3 MiB (6%) 
Language : English 

Audio #3 

ID : 4 
Format : AAC 
Format/Info : Advanced Audio Codec 
Format profile : LC 
Codec ID : 40 
Duration : 1h 2mn 
Bit rate mode : Variable 
Bit rate : 192 Kbps 
Maximum bit rate : 227 Kbps 
Channel(s) : 2 channels 
Channel positions : Front: L R 
Sampling rate : 48.0 KHz 
Compression mode : Lossy 
Stream size : 86.3 MiB (6%) 
Language : English   

SIZE:1.34GB
